<svg xmlns="http://www.w3.org/2000/svg" viewBox="0 0 100 100"><path d="M47.6 20.1c-7.5 1.2-13.2 7.6-13.2 15.4V41c0 1.4 1.1 2.5 2.5 2.5h26.4c1.4 0 2.5-1.1 2.5-2.5v-5.4c0-7.8-5.7-14.3-13.2-15.4V9.8c0-1.4-1.1-2.5-2.5-2.5s-2.5 1.1-2.5 2.5v10.3zM45.9 50.8c0-1.4-1.1-2.5-2.5-2.5s-2.5 1.1-2.5 2.5v5.8h-4.1c-1.4 0-2.5 1.1-2.5 2.5v5.4c0 7.8 5.7 14.3 13.2 15.4v10.4c0 1.4 1.1 2.5 2.5 2.5s2.5-1.1 2.5-2.5V79.9c7.5-1.2 13.2-7.6 13.2-15.4V59c0-1.4-1.1-2.5-2.5-2.5h-4.1v-5.8c0-1.4-1.1-2.5-2.5-2.5s-2.5 1.1-2.5 2.5v5.8h-8.2v-5.7z"/></svg>
